<svg id="visual" viewBox="0 0 960 540" width="960" height="540" xmlns="http://www.w3.org/2000/svg" xmlns:xlink="http://www.w3.org/1999/xlink" version="1.1"><rect x="0" y="0" width="960" height="540" fill="#edecea"></rect><defs><linearGradient id="grad1_0" x1="43.8%" y1="100%" x2="100%" y2="0%"><stop offset="14.444444444444446%" stop-color="#edecea" stop-opacity="1"></stop><stop offset="85.55555555555554%" stop-color="#edecea" stop-opacity="1"></stop></linearGradient></defs><defs><linearGradient id="grad2_0" x1="0%" y1="100%" x2="56.3%" y2="0%"><stop offset="14.444444444444446%" stop-color="#edecea" stop-opacity="1"></stop><stop offset="85.55555555555554%" stop-color="#edecea" stop-opacity="1"></stop></linearGradient></defs><g transform="translate(960, 540)"><path d="M-216 0C-196.3 -29.5 -176.6 -58.9 -161.1 -93C-145.5 -127.1 -134.2 -165.8 -108 -187.1C-81.8 -208.3 -40.9 -212.2 0 -216L0 0Z" fill="#222222"></path></g><g transform="translate(0, 0)"><path d="M216 0C194.9 28.7 173.8 57.3 158.5 91.5C143.1 125.7 133.5 165.4 108 187.1C82.5 208.7 41.3 212.4 0 216L0 0Z" fill="#222222"></path></g></svg>